<?xml version="1.0" standalone="no"?>
<!DOCTYPE svg PUBLIC "-//W3C//DTD SVG 20010904//EN"
 "http://www.w3.org/TR/2001/REC-SVG-20010904/DTD/svg10.dtd">
<svg version="1.0" xmlns="http://www.w3.org/2000/svg"
 width="687.000000pt" height="687.000000pt" viewBox="0 0 687.000000 687.000000"
 preserveAspectRatio="xMidYMid meet">
<metadata>
Created by potrace 1.14, written by Peter Selinger 2001-2017
</metadata>
<g transform="translate(0.000000,687.000000) scale(0.100000,-0.100000)"
fill="#000000" stroke="none">
<path d="M3535 6520 c-44 -4 -89 -12 -100 -17 -11 -6 -48 -14 -82 -18 -34 -4
-79 -15 -100 -26 -20 -10 -41 -19 -45 -19 -16 0 -144 -64 -174 -87 -17 -13
-34 -23 -39 -23 -4 0 -37 -21 -74 -48 -36 -26 -79 -56 -94 -65 -44 -28 -201
-189 -217 -222 -8 -16 -20 -37 -26 -45 -7 -8 -29 -64 -49 -124 -20 -60 -40
-117 -46 -127 -5 -10 -11 -54 -14 -96 -5 -106 -32 -323 -50 -403 -9 -40 -13
-106 -11 -172 2 -113 1 -118 -46 -118 -29 0 -73 -29 -91 -60 -9 -15 -29 -60
-44 -101 -24 -64 -28 -89 -28 -184 0 -107 10 -310 21 -408 3 -27 16 -73 29
-104 14 -30 30 -74 36 -96 24 -93 91 -136 186 -122 l43 6 0 -143 c0 -79 5
-189 12 -245 10 -93 10 -105 -7 -136 -12 -23 -15 -39 -9 -50 17 -30 132 -142
244 -237 115 -97 192 -170 290 -276 113 -121 286 -269 390 -334 144 -90 180
-116 257 -187 86 -77 205 -173 240 -191 31 -17 50 -6 64 36 6 21 23 58 38 84
24 45 42 55 83 49 44 -6 141 -14 173 -14 49 0 141 41 174 76 27 29 23 58 -7
50 -20 -5 -39 22 -22 32 16 10 11 25 -5 19 -10 -4 -15 0 -15 15 0 30 -16 26
-30 -9 -15 -35 -31 -40 -27 -8 1 17 -3 22 -15 20 -9 -1 -19 6 -23 18 -4 12
-22 28 -41 37 -19 9 -34 20 -34 25 0 4 -4 8 -10 8 -5 0 -10 -7 -10 -15 0 -8 7
-15 15 -15 8 0 15 -4 15 -10 0 -14 -13 -13 -29 3 -11 10 -14 9 -18 -1 -3 -6
-9 -10 -14 -7 -5 4 -1 17 8 31 23 35 27 84 8 84 -8 0 -15 5 -15 11 0 5 5 7 10
4 9 -6 12 1 9 22 -1 10 30 25 40 19 14 -9 32 20 25 39 -4 9 -10 13 -13 8 -15
-20 -48 -31 -65 -21 -15 8 -16 12 -5 19 8 5 17 3 21 -4 6 -8 14 -5 28 13 11
14 20 30 20 37 0 7 7 10 15 7 11 -5 13 -2 9 10 -3 9 -1 16 5 16 6 0 11 -10 12
-22 1 -21 1 -21 10 4 6 16 16 25 23 22 9 -3 13 3 11 18 -4 37 -4 38 -18 32 -8
-3 -20 3 -28 12 -12 15 -12 16 9 10 15 -5 22 -3 22 6 0 8 13 13 35 14 42 1 42
1 48 42 4 23 1 32 -9 32 -8 0 -14 6 -14 13 0 14 -39 41 -47 33 -3 -3 -15 0
-26 6 -16 8 -19 8 -14 -5 10 -26 -6 -29 -26 -5 -12 15 -17 17 -14 6 5 -15 4
-15 -26 0 -18 9 -34 19 -37 22 -3 3 -14 5 -25 5 -24 -1 -85 36 -85 51 0 6 -9
19 -19 28 -11 10 -17 25 -14 33 5 13 1 15 -18 10 -40 -10 -69 2 -69 29 0 27
-17 32 -26 9 -4 -8 -10 -12 -15 -9 -5 3 -9 -1 -9 -8 0 -10 -3 -9 -10 2 -6 9
-5 19 2 28 9 10 13 10 19 0 6 -9 10 -8 15 5 5 14 9 15 21 5 11 -9 16 -9 23 1
4 8 13 10 19 6 7 -4 59 -8 116 -10 58 -2 109 -6 115 -10 5 -3 10 -2 10 3 0 5
-10 14 -22 20 l-23 11 25 1 c14 1 32 3 40 4 8 0 16 10 18 21 3 11 11 24 18 28
10 6 11 13 5 24 -6 11 -4 21 5 30 7 8 11 20 8 28 -4 8 -2 15 4 15 5 0 9 14 8
31 -1 31 1 33 59 48 33 9 66 20 73 25 17 10 15 61 -3 76 -9 7 -13 15 -11 18
12 11 -26 62 -47 63 l-22 0 23 9 c12 5 22 14 22 20 0 5 7 10 15 10 8 0 15 4
15 9 0 16 -31 41 -42 35 -7 -4 -8 -2 -4 4 6 11 -6 16 -26 13 -5 0 -8 3 -8 9 0
6 -9 6 -25 0 -21 -8 -30 -6 -48 11 -12 11 -23 32 -23 47 -1 15 -5 36 -9 46 -7
16 -5 18 8 13 10 -4 16 -2 14 5 -1 6 4 13 12 16 8 3 11 0 7 -7 -11 -16 10 -13
24 4 9 11 9 15 1 15 -7 0 -5 10 6 28 l17 27 -22 -19 c-12 -11 -25 -16 -29 -13
-3 4 -2 7 4 7 15 0 22 47 10 59 -8 8 -7 11 1 11 7 0 12 7 12 15 0 8 4 15 9 15
15 0 20 42 7 56 -8 7 -16 11 -19 8 -2 -3 -7 2 -10 10 -4 9 -1 15 6 13 8 -1 11
9 9 28 -2 17 -4 39 -4 50 -1 11 -7 24 -12 28 -8 6 -8 10 0 13 14 6 6 54 -9 54
-6 0 -2 6 8 14 15 11 17 17 7 28 -6 8 -8 19 -4 23 4 5 -1 5 -10 2 -10 -4 -18
-2 -18 3 0 6 5 10 11 10 7 0 8 7 4 18 -18 41 -17 110 1 138 41 64 57 68 98 25
27 -29 28 -30 15 -85 -14 -66 0 -111 33 -100 24 7 23 -15 -2 -24 -18 -7 -18
-9 10 -52 22 -33 45 -53 90 -75 33 -17 60 -33 60 -36 0 -4 18 -19 40 -34 23
-16 39 -34 36 -41 -3 -8 0 -11 9 -8 25 10 85 -16 85 -36 0 -20 14 -28 48 -25
21 2 21 0 7 -21 -14 -22 -14 -22 15 -7 16 8 32 19 35 24 4 5 11 6 17 3 6 -4 8
1 3 15 -5 15 -2 21 9 21 10 0 16 9 16 24 0 17 -9 28 -35 40 -19 9 -37 21 -40
26 -3 6 -15 10 -25 10 -12 0 -17 5 -14 13 3 8 -2 20 -11 27 -24 20 -18 28 28
36 23 4 35 9 27 11 -8 3 -21 7 -29 9 -8 3 11 21 48 46 33 22 61 44 61 49 0 5
12 4 26 -1 33 -13 34 -13 34 4 0 15 -73 94 -110 118 l-25 17 30 -5 c45 -8 73
-30 83 -67 4 -17 16 -33 25 -35 24 -5 22 49 -3 90 -11 18 -20 41 -20 51 0 9
-4 17 -9 17 -5 0 -5 15 -1 35 6 26 4 39 -6 50 -18 18 -18 35 1 35 8 0 15 6 15
13 0 14 76 11 86 -4 3 -5 13 -9 22 -9 16 1 13 5 -57 62 -7 6 -30 19 -50 29
-34 17 -35 19 -13 25 12 3 22 10 22 14 0 14 -38 18 -82 8 -78 -17 -99 -16
-138 4 -35 19 -40 20 -55 5 -12 -13 -21 -14 -43 -6 -15 6 -34 12 -42 13 -8 1
-23 6 -33 10 -11 5 -26 2 -42 -8 -27 -18 -39 -21 -31 -7 3 4 -6 13 -19 19 -14
7 -25 8 -25 4 0 -4 -11 -9 -26 -10 -14 -1 -34 -6 -44 -12 -25 -13 -81 -20 -74
-9 3 5 -7 10 -23 10 -19 1 -22 3 -10 6 13 3 17 11 14 24 -3 12 2 20 14 24 11
4 17 11 14 16 -9 14 -27 11 -19 -3 5 -10 4 -10 -7 0 -11 10 -10 15 5 30 11 9
15 11 11 3 -5 -9 -4 -12 3 -7 19 11 15 39 -4 32 -10 -4 -14 -1 -11 6 2 7 13
12 23 10 15 -2 16 -1 5 7 -8 5 -21 7 -29 3 -10 -3 -13 -1 -8 6 4 7 16 12 27
12 10 0 19 3 20 8 5 39 3 112 -2 135 -8 28 -1 35 18 16 8 -8 14 -5 22 10 7 12
8 22 4 22 -4 1 -14 2 -22 3 -8 0 -15 9 -17 18 -1 10 3 15 11 12 7 -3 16 0 20
6 4 6 1 11 -6 9 -30 -4 -37 2 -34 31 1 17 5 33 8 37 4 3 2 12 -4 20 -9 10 -8
17 2 30 12 14 12 16 0 8 -11 -6 -13 -4 -8 9 4 10 2 27 -4 38 -7 14 -8 23 -1
30 6 6 8 17 5 26 -5 11 -3 13 7 7 10 -6 11 -4 4 6 -13 21 -14 39 -2 39 7 0 7
5 -1 13 -6 8 -9 23 -6 36 2 13 -2 24 -10 28 -19 7 -20 33 -1 33 21 0 40 27 24
33 -9 4 -7 6 4 6 20 1 34 37 20 54 -10 11 -12 18 -12 34 0 4 -7 -2 -15 -13 -8
-10 -15 -16 -15 -12 0 13 24 62 42 87 13 17 15 27 7 31 -6 4 -10 10 -10 14 1
3 1 7 0 9 0 1 -2 15 -3 30 -2 25 1 27 24 22 24 -6 24 -6 5 9 -15 12 -17 16 -5
17 26 3 43 -2 57 -17 14 -13 28 -18 46 -15 4 0 7 -3 7 -8 0 -5 16 -15 35 -22
21 -8 35 -20 35 -29 0 -10 8 -24 18 -33 21 -19 37 -22 26 -6 -4 7 -1 10 7 7 8
-2 22 -21 32 -41 21 -41 36 -47 44 -18 3 11 12 22 20 25 7 3 11 2 8 -3 -10
-17 13 -22 29 -6 9 9 17 11 21 5 3 -5 1 -10 -4 -10 -6 0 -11 -4 -11 -10 0 -16
14 -12 37 9 l21 20 13 -44 c10 -34 16 -42 26 -33 7 5 11 14 8 18 -3 5 4 6 15
3 11 -3 20 0 20 6 0 6 5 11 11 11 5 0 8 -4 4 -9 -3 -5 8 -24 25 -42 16 -19 30
-42 30 -52 0 -9 6 -20 14 -23 7 -3 17 -23 20 -45 3 -22 13 -42 20 -45 8 -3 17
-22 21 -42 4 -20 11 -43 17 -49 5 -7 10 -28 10 -47 0 -20 6 -40 14 -47 8 -6
14 -24 14 -39 0 -15 7 -41 15 -56 14 -27 15 -22 12 80 -2 68 -7 111 -14 113
-6 2 -9 13 -6 23 3 11 -2 31 -11 45 -9 13 -16 35 -16 49 0 14 -4 27 -9 30 -5
3 -7 15 -4 26 3 11 0 20 -6 20 -6 0 -11 -5 -11 -12 0 -6 -3 -8 -6 -5 -4 4 -1
13 6 22 10 13 10 19 -4 33 -9 10 -16 25 -16 32 0 24 -50 99 -70 105 -11 4 -18
10 -15 15 10 16 -7 40 -29 41 -11 0 -15 3 -8 6 20 8 14 40 -13 61 -14 11 -25
23 -25 27 0 12 -118 160 -173 216 -54 55 -87 78 -87 59 0 -6 -5 -10 -11 -10
-8 0 -7 5 1 15 11 14 8 20 -21 44 -26 22 -38 27 -51 20 -17 -9 -24 3 -19 33 2
14 -45 38 -67 33 -15 -2 -22 1 -22 11 0 9 5 12 12 8 7 -4 8 -3 4 5 -4 6 -16 9
-27 6 -12 -4 -18 -2 -17 5 3 12 -133 77 -207 99 -22 7 -49 16 -60 21 -82 34
-426 56 -630 40z m862 -691 c-2 -10 -7 -22 -12 -26 -4 -5 -5 -3 -1 4 3 6 2 14
-4 18 -15 9 -12 22 5 22 8 0 13 -8 12 -18z m553 -25 c0 -2 -7 -4 -15 -4 -8 0
-15 4 -15 10 0 5 7 7 15 4 8 -4 15 -8 15 -10z m-546 -150 c8 -21 9 -21 -14
-19 -27 2 -37 14 -20 25 21 13 27 12 34 -6z m686 -144 c0 -5 -4 -10 -10 -10
-5 0 -10 5 -10 10 0 6 5 10 10 10 6 0 10 -4 10 -10z m-990 -574 c0 -3 -4 -8
-10 -11 -5 -3 -10 -1 -10 4 0 6 5 11 10 11 6 0 10 -2 10 -4z m165 -56 c3 -5 1
-10 -4 -10 -6 0 -11 5 -11 10 0 6 2 10 4 10 3 0 8 -4 11 -10z m45 -70 c-8 -5
-18 -6 -24 -3 -5 4 -1 10 10 13 24 9 34 2 14 -10z m650 -126 c0 -8 -5 -12 -10
-9 -6 4 -8 11 -5 16 9 14 15 11 15 -7z m-1217 -186 c51 -37 57 -46 52 -68 -4
-14 -8 -27 -10 -29 -9 -8 -175 -12 -175 -4 0 6 9 18 20 28 12 11 22 37 26 66
4 27 12 49 18 49 7 0 38 -19 69 -42z m-298 -8 c3 -5 -1 -10 -10 -10 -9 0 -13
5 -10 10 3 6 8 10 10 10 2 0 7 -4 10 -10z m185 6 c0 -2 3 -11 6 -19 4 -11 -1
-13 -20 -10 -31 6 -35 33 -6 33 11 0 20 -2 20 -4z m1250 -108 c18 -13 38 -31
44 -40 18 -29 -21 -58 -87 -65 -31 -3 -57 -3 -57 2 0 4 9 18 20 32 11 14 20
38 20 53 0 46 13 50 60 18z m-105 -18 c4 -6 -5 -10 -20 -10 -15 0 -24 4 -20
10 3 6 12 10 20 10 8 0 17 -4 20 -10z m-185 -31 c0 -6 -4 -7 -10 -4 -5 3 -10
11 -10 16 0 6 5 7 10 4 6 -3 10 -11 10 -16z m-1000 -414 c0 -4 -23 -2 -48 4
-2 1 0 6 3 11 6 10 45 -4 45 -15z m-65 -65 c3 -5 1 -10 -4 -10 -6 0 -11 5 -11
10 0 6 2 10 4 10 3 0 8 -4 11 -10z m45 -51 c0 -5 -4 -8 -9 -5 -5 4 -12 0 -14
-6 -3 -8 -6 -6 -6 5 -1 9 6 17 14 17 8 0 15 -5 15 -11z m670 -513 c0 -2 -7 -6
-15 -10 -8 -3 -15 -1 -15 4 0 6 7 10 15 10 8 0 15 -2 15 -4z m-26 -47 c-9 -15
-27 -10 -21 5 3 7 0 20 -6 27 -7 7 -2 5 10 -5 13 -10 20 -23 17 -27z m-44
-777 c0 -15 -2 -15 -10 -2 -13 20 -13 33 0 25 6 -3 10 -14 10 -23z m250 -133
c0 -18 -2 -19 -15 -9 -8 7 -15 16 -15 21 0 5 7 9 15 9 9 0 15 -9 15 -21z
m-470 -89 c0 -5 -5 -10 -11 -10 -5 0 -7 5 -4 10 3 6 8 10 11 10 2 0 4 -4 4
-10z"/>
<path d="M4600 5759 c0 -5 5 -7 10 -4 6 3 10 8 10 11 0 2 -4 4 -10 4 -5 0 -10
-5 -10 -11z"/>
<path d="M4420 5705 c0 -8 4 -15 10 -15 5 0 7 7 4 15 -4 8 -8 15 -10 15 -2 0
-4 -7 -4 -15z"/>
<path d="M4840 5700 c0 -5 5 -10 11 -10 5 0 7 5 4 10 -3 6 -8 10 -11 10 -2 0
-4 -4 -4 -10z"/>
<path d="M4565 5610 c-3 -5 -1 -10 4 -10 6 0 11 5 11 10 0 6 -2 10 -4 10 -3 0
-8 -4 -11 -10z"/>
<path d="M4626 5605 c-8 -22 -8 -22 8 -22 7 0 13 6 12 13 -3 22 -13 26 -20 9z"/>
<path d="M4596 5555 c4 -8 11 -15 16 -15 6 0 8 -9 5 -20 -7 -27 10 -26 18 1 4
12 12 18 21 15 20 -7 18 4 -3 20 -25 19 -64 18 -57 -1z"/>
<path d="M4638 5499 c-24 -25 -23 -29 9 -29 35 0 24 -10 -17 -15 -35 -4 -54
-15 -26 -15 9 0 14 -4 11 -10 -10 -16 15 -12 32 6 9 9 26 14 40 11 33 -6 26
26 -7 33 -17 4 -24 11 -22 23 4 21 2 20 -20 -4z"/>
<path d="M4596 5381 c-3 -5 1 -11 9 -15 15 -6 29 7 18 18 -9 9 -21 8 -27 -3z"/>
<path d="M4960 4009 c0 -5 5 -7 10 -4 6 3 10 8 10 11 0 2 -4 4 -10 4 -5 0 -10
-5 -10 -11z"/>
<path d="M4606 3968 c-23 -32 -21 -36 28 -59 25 -11 53 -32 62 -47 24 -36 22
-106 -2 -139 -26 -34 -44 -41 -37 -14 9 34 -29 26 -86 -20 -28 -22 -51 -42
-51 -45 0 -6 64 8 75 16 6 5 28 10 50 11 22 2 46 9 53 16 20 19 30 16 49 -14
10 -16 24 -33 32 -39 10 -8 11 -15 2 -31 -8 -17 -7 -24 6 -34 15 -13 16 -11 9
14 -3 15 -4 27 -1 27 3 0 23 -17 45 -37 21 -21 51 -46 66 -57 38 -27 63 -91
64 -161 l1 -60 16 30 c9 17 20 50 24 75 8 51 -7 173 -21 178 -6 2 -7 14 -4 26
4 16 0 25 -10 29 -10 4 -16 19 -16 42 0 21 -5 35 -12 35 -9 0 -8 4 2 10 10 6
11 10 3 10 -7 0 -13 9 -13 20 0 12 -9 30 -19 41 -18 19 -20 19 -29 4 -8 -16
-10 -16 -17 1 -5 11 -9 21 -10 24 -2 3 -6 15 -10 27 -4 12 -13 19 -20 17 -7
-3 -20 2 -29 11 -9 9 -16 11 -16 5 0 -6 -5 -8 -10 -5 -6 4 -9 18 -8 33 2 18
-2 27 -12 27 -8 1 -23 5 -33 9 -17 8 -17 10 -1 27 9 11 12 19 7 19 -6 0 -16
-7 -23 -15 -7 -8 -17 -15 -22 -15 -5 0 -16 7 -24 15 -21 21 -40 19 -58 -7z"/>
<path d="M4800 3510 c0 -5 9 -14 20 -20 11 -6 23 -23 26 -38 4 -15 16 -38 26
-52 12 -15 15 -26 9 -28 -6 -2 -11 -10 -11 -18 0 -9 5 -12 10 -9 6 4 10 -6 9
-22 0 -23 -2 -25 -8 -9 -5 14 -10 16 -15 8 -4 -7 -10 -12 -14 -12 -11 0 -31
50 -26 65 3 7 0 16 -5 20 -6 3 -9 11 -6 16 3 5 -1 6 -9 3 -9 -3 -16 -12 -16
-20 0 -8 -7 -14 -15 -14 -17 0 -14 -18 14 -98 19 -54 34 -60 41 -17 3 17 11
30 18 29 35 -3 40 -5 38 -20 -2 -31 20 -24 37 11 23 48 21 102 -4 150 -24 44
-38 57 -55 51 -7 -3 -21 4 -32 15 -23 21 -32 24 -32 9z"/>
<path d="M4845 3510 c3 -5 11 -10 16 -10 6 0 7 5 4 10 -3 6 -11 10 -16 10 -6
0 -7 -4 -4 -10z"/>
<path d="M4509 3478 c-12 -39 -8 -42 81 -52 38 -4 41 -3 23 6 -13 6 -23 18
-23 26 0 11 -3 12 -14 3 -10 -9 -16 -8 -26 4 -10 13 -38 21 -41 13z"/>
<path d="M4773 3423 c-15 -5 -17 -23 -4 -23 5 0 11 7 15 15 3 8 4 15 3 14 -1
0 -8 -3 -14 -6z"/>
<path d="M4446 3298 c-10 -40 -7 -48 22 -48 18 0 23 3 14 9 -11 6 -10 10 4 15
16 6 16 8 -1 26 -23 26 -31 25 -39 -2z"/>
<path d="M4706 3248 c-32 -16 -36 -22 -24 -29 26 -15 75 0 73 22 -2 28 -7 29
-49 7z"/>
<path d="M4316 3222 c-3 -6 1 -13 10 -16 23 -9 28 -2 10 13 -8 7 -17 8 -20 3z"/>
<path d="M4280 3145 c14 -16 40 -20 40 -6 0 9 -24 21 -42 21 -6 0 -6 -6 2 -15z"/>
<path d="M4347 3153 c-4 -3 -7 -11 -7 -17 0 -6 5 -5 12 2 6 6 9 14 7 17 -3 3
-9 2 -12 -2z"/>
<path d="M2346 2521 c-4 -5 -1 -11 4 -13 8 -2 60 -130 60 -146 -1 -9 55 -85
103 -142 38 -44 86 -118 80 -124 -3 -3 -1 -6 5 -6 7 0 12 3 12 8 0 12 -38 82
-90 162 -26 41 -73 119 -105 173 -31 53 -58 97 -60 97 -2 0 -6 -4 -9 -9z"/>
<path d="M4330 2460 c0 -8 7 -24 16 -35 14 -19 15 -19 11 3 -4 27 -27 54 -27
32z"/>
<path d="M2620 2075 c0 -5 9 -21 20 -35 11 -14 20 -20 20 -15 0 6 -9 21 -20
35 -11 14 -20 21 -20 15z"/>
<path d="M1895 2000 c4 -6 11 -8 16 -5 14 9 11 15 -7 15 -8 0 -12 -5 -9 -10z"/>
<path d="M2666 1981 c-4 -5 7 -24 24 -43 17 -18 33 -41 36 -50 3 -10 10 -18
15 -18 11 0 -10 42 -44 88 -14 18 -28 29 -31 23z"/>
<path d="M2040 1931 c0 -5 9 -13 21 -16 11 -4 24 -16 29 -28 8 -21 9 -20 9 6
1 21 -4 27 -19 27 -11 0 -20 5 -20 10 0 6 -4 10 -10 10 -5 0 -10 -4 -10 -9z"/>
<path d="M2110 1880 c0 -5 8 -10 19 -10 10 0 31 -18 47 -41 15 -23 30 -36 32
-30 7 20 22 11 19 -11 -1 -17 3 -22 16 -20 9 2 17 -3 17 -11 0 -8 13 -20 30
-27 16 -7 27 -16 25 -21 -3 -4 10 -19 30 -32 46 -32 155 -136 196 -190 19 -23
36 -44 39 -47 3 -3 21 -25 40 -50 46 -60 101 -120 110 -120 4 0 10 9 13 20 3
11 1 20 -4 20 -13 0 -58 52 -59 66 0 6 -6 17 -14 24 -8 6 -13 17 -10 23 2 7
-9 20 -24 31 -24 16 -83 94 -118 157 -13 23 -50 59 -61 59 -4 0 -21 14 -37 30
-16 16 -32 27 -37 25 -4 -3 -11 0 -16 7 -4 7 -17 18 -28 24 -11 6 -25 21 -31
32 -6 12 -13 19 -17 16 -3 -3 -22 6 -41 21 -66 50 -136 79 -136 55z"/>
<path d="M2758 1835 c2 -14 8 -25 13 -25 14 0 11 26 -5 39 -11 9 -12 6 -8 -14z"/>
<path d="M4160 1833 c0 -16 8 -41 18 -58 10 -16 22 -43 26 -58 9 -39 28 -23
23 20 -5 37 -47 123 -59 123 -5 0 -8 -12 -8 -27z"/>
<path d="M2794 1784 c3 -9 6 -19 6 -24 0 -4 7 -10 15 -14 14 -5 13 -2 0 24
-16 31 -32 42 -21 14z"/>
<path d="M2840 1705 c0 -5 5 -17 10 -25 5 -8 10 -10 10 -5 0 6 -5 17 -10 25
-5 8 -10 11 -10 5z"/>
<path d="M4223 1611 c-5 -13 -7 -35 -5 -50 3 -24 12 -30 67 -48 45 -15 66 -18
74 -10 18 18 13 34 -13 41 -36 9 -93 48 -104 71 -10 19 -10 19 -19 -4z"/>
<path d="M650 1406 c0 -2 7 -6 15 -10 8 -3 15 -1 15 4 0 6 -7 10 -15 10 -8 0
-15 -2 -15 -4z"/>
<path d="M541 1304 c0 -11 3 -14 6 -6 3 7 2 16 -1 19 -3 4 -6 -2 -5 -13z"/>
<path d="M2470 1306 c0 -2 7 -9 15 -16 9 -7 15 -8 15 -2 0 5 -7 12 -15 16 -8
3 -15 4 -15 2z"/>
<path d="M2500 1260 c0 -5 7 -10 15 -10 8 0 15 5 15 10 0 6 -7 10 -15 10 -8 0
-15 -4 -15 -10z"/>
<path d="M2750 1262 c0 -15 40 -41 55 -36 8 3 13 10 10 15 -3 4 -12 6 -19 3
-7 -3 -16 2 -19 10 -6 16 -27 22 -27 8z"/>
<path d="M2558 1253 c7 -3 16 -2 19 1 4 3 -2 6 -13 5 -11 0 -14 -3 -6 -6z"/>
<path d="M2583 1215 c-16 -18 -16 -22 0 -22 7 0 14 9 14 19 2 21 2 21 -14 3z"/>
<path d="M2820 1208 c0 -4 4 -8 9 -8 6 0 12 4 15 8 3 5 -1 9 -9 9 -8 0 -15 -4
-15 -9z"/>
<path d="M2610 1197 c0 -1 9 -10 20 -20 19 -16 20 -16 20 3 0 13 -7 20 -20 20
-11 0 -20 -1 -20 -3z"/>
<path d="M2660 1156 c0 -9 5 -16 10 -16 6 0 10 4 10 9 0 6 -4 13 -10 16 -5 3
-10 -1 -10 -9z"/>
<path d="M530 1099 c0 -5 4 -8 9 -5 5 4 12 0 14 -6 3 -8 6 -6 6 5 1 9 -6 17
-14 17 -8 0 -15 -5 -15 -11z"/>
<path d="M400 1001 c0 -5 5 -13 10 -16 6 -3 10 -2 10 4 0 5 -4 13 -10 16 -5 3
-10 2 -10 -4z"/>
<path d="M481 888 c0 -9 -4 -25 -7 -35 -5 -14 -4 -15 5 -7 7 7 11 22 8 35 -2
13 -5 16 -6 7z"/>
<path d="M720 799 c0 -5 5 -7 10 -4 6 3 10 8 10 11 0 2 -4 4 -10 4 -5 0 -10
-5 -10 -11z"/>
<path d="M1025 720 c-3 -5 -1 -10 4 -10 6 0 11 5 11 10 0 6 -2 10 -4 10 -3 0
-8 -4 -11 -10z"/>
<path d="M5753 685 c0 -27 2 -38 4 -22 2 15 2 37 0 50 -2 12 -4 0 -4 -28z"/>
<path d="M1100 699 c0 -5 5 -7 10 -4 6 3 10 8 10 11 0 2 -4 4 -10 4 -5 0 -10
-5 -10 -11z"/>
<path d="M670 685 c-8 -9 -8 -15 -2 -15 12 0 26 19 19 26 -2 2 -10 -2 -17 -11z"/>
<path d="M420 630 c0 -5 5 -10 11 -10 5 0 7 5 4 10 -3 6 -8 10 -11 10 -2 0 -4
-4 -4 -10z"/>
<path d="M533 608 c-10 -11 -12 -18 -4 -18 6 0 14 7 17 15 4 11 10 12 18 6 7
-6 17 -6 26 -1 8 6 13 10 10 11 -33 6 -53 3 -67 -13z"/>
<path d="M630 606 c0 -2 7 -7 16 -10 8 -3 12 -2 9 4 -6 10 -25 14 -25 6z"/>
<path d="M440 580 c0 -11 -6 -20 -14 -20 -8 0 -18 -5 -21 -11 -9 -14 26 -8 43
8 6 6 12 16 12 22 0 6 8 8 18 5 14 -5 15 -4 2 5 -23 17 -40 13 -40 -9z"/>
<path d="M306 544 c-4 -9 -4 -19 -1 -22 3 -3 5 0 5 6 0 7 7 12 16 12 8 0 12 5
9 10 -9 15 -22 12 -29 -6z"/>
<path d="M371 544 c0 -11 3 -14 6 -6 3 7 2 16 -1 19 -3 4 -6 -2 -5 -13z"/>
<path d="M945 549 c-4 -6 -5 -12 -2 -15 2 -3 7 2 10 11 7 17 1 20 -8 4z"/>
<path d="M725 540 c3 -5 8 -10 11 -10 2 0 4 5 4 10 0 6 -5 10 -11 10 -5 0 -7
-4 -4 -10z"/>
<path d="M605 515 c29 -10 42 -11 50 -3 7 8 5 9 -7 5 -10 -3 -20 -2 -23 3 -4
6 -18 10 -33 10 -24 -1 -22 -3 13 -15z"/>
<path d="M760 519 c0 -5 5 -7 10 -4 6 3 10 8 10 11 0 2 -4 4 -10 4 -5 0 -10
-5 -10 -11z"/>
<path d="M400 514 c0 -3 7 -12 15 -20 12 -13 15 -12 25 6 9 18 8 20 -15 20
-14 0 -25 -3 -25 -6z"/>
<path d="M270 495 c-11 -13 -10 -14 4 -9 9 3 16 10 16 15 0 13 -6 11 -20 -6z"/>
<path d="M576 495 c4 -8 8 -15 10 -15 2 0 4 7 4 15 0 8 -4 15 -10 15 -5 0 -7
-7 -4 -15z"/>
<path d="M690 500 c0 -5 5 -10 10 -10 6 0 10 5 10 10 0 6 -4 10 -10 10 -5 0
-10 -4 -10 -10z"/>
<path d="M511 484 c0 -11 3 -14 6 -6 3 7 2 16 -1 19 -3 4 -6 -2 -5 -13z"/>
<path d="M1030 480 c0 -5 5 -10 10 -10 6 0 10 5 10 10 0 6 -4 10 -10 10 -5 0
-10 -4 -10 -10z"/>
<path d="M5690 471 c-6 -12 -7 -21 -1 -21 10 0 24 30 17 37 -2 3 -9 -5 -16
-16z"/>
<path d="M410 460 c0 -5 5 -10 10 -10 6 0 10 5 10 10 0 6 -4 10 -10 10 -5 0
-10 -4 -10 -10z"/>
<path d="M1195 460 c-3 -5 -1 -10 4 -10 6 0 11 5 11 10 0 6 -2 10 -4 10 -3 0
-8 -4 -11 -10z"/>
<path d="M530 439 c0 -5 5 -7 10 -4 6 3 10 8 10 11 0 2 -4 4 -10 4 -5 0 -10
-5 -10 -11z"/>
<path d="M560 429 c0 -5 5 -7 10 -4 6 3 10 8 10 11 0 2 -4 4 -10 4 -5 0 -10
-5 -10 -11z"/>
<path d="M5660 419 c0 -5 5 -7 10 -4 6 3 10 8 10 11 0 2 -4 4 -10 4 -5 0 -10
-5 -10 -11z"/>
<path d="M680 409 c0 -5 5 -7 10 -4 6 3 10 8 10 11 0 2 -4 4 -10 4 -5 0 -10
-5 -10 -11z"/>
<path d="M713 400 c3 -11 1 -23 -4 -26 -5 -3 -9 -13 -9 -22 1 -15 2 -15 14 1
14 18 15 18 25 0 6 -11 11 -13 11 -5 0 7 -7 20 -15 28 -8 8 -12 21 -9 29 4 8
1 15 -6 15 -7 0 -10 -8 -7 -20z"/>
<path d="M525 400 c-3 -5 -4 -11 -1 -11 3 -1 11 -3 16 -4 6 -1 13 -3 16 -4 4
0 1 -7 -5 -15 -7 -9 -8 -17 -3 -20 11 -7 22 16 22 45 0 20 -34 27 -45 9z"/>
<path d="M768 403 c6 -2 18 -2 25 0 6 3 1 5 -13 5 -14 0 -19 -2 -12 -5z"/>
<path d="M340 369 c0 -14 7 -34 15 -45 14 -18 14 -18 15 7 0 14 -7 34 -15 45
-14 18 -14 18 -15 -7z"/>
<path d="M420 386 c0 -2 7 -6 15 -10 8 -3 15 -1 15 4 0 6 -7 10 -15 10 -8 0
-15 -2 -15 -4z"/>
<path d="M632 367 c-12 -13 -22 -27 -22 -33 0 -5 5 -2 10 6 9 13 11 13 20 0 5
-8 10 -13 11 -10 4 27 7 60 5 60 -1 0 -12 -10 -24 -23z"/>
<path d="M870 379 c0 -5 5 -7 10 -4 6 3 10 8 10 11 0 2 -4 4 -10 4 -5 0 -10
-5 -10 -11z"/>
<path d="M493 373 c-15 -5 -17 -23 -4 -23 5 0 11 7 15 15 3 8 4 15 3 14 -1 0
-8 -3 -14 -6z"/>
<path d="M443 353 c-13 -8 -23 -19 -23 -23 0 -9 38 -6 47 5 5 4 2 5 -4 1 -16
-9 -17 6 -1 22 16 16 8 14 -19 -5z"/>
<path d="M585 349 c-4 -6 -5 -12 -2 -15 2 -3 7 2 10 11 7 17 1 20 -8 4z"/>
<path d="M670 329 c0 -5 5 -7 10 -4 6 3 10 8 10 11 0 2 -4 4 -10 4 -5 0 -10
-5 -10 -11z"/>
<path d="M165 320 c-3 -5 -1 -10 4 -10 6 0 11 5 11 10 0 6 -2 10 -4 10 -3 0
-8 -4 -11 -10z"/>
<path d="M280 320 c0 -5 5 -10 11 -10 5 0 7 5 4 10 -3 6 -8 10 -11 10 -2 0 -4
-4 -4 -10z"/>
<path d="M515 313 c4 -10 10 -26 12 -35 8 -28 23 -10 22 25 -1 18 -3 24 -6 14
-2 -9 -9 -15 -14 -11 -5 3 -7 10 -4 15 4 5 1 9 -5 9 -8 0 -9 -7 -5 -17z"/>
<path d="M730 315 c0 -8 2 -15 4 -15 2 0 6 7 10 15 3 8 1 15 -4 15 -6 0 -10
-7 -10 -15z"/>
<path d="M570 309 c0 -5 5 -7 10 -4 6 3 10 8 10 11 0 2 -4 4 -10 4 -5 0 -10
-5 -10 -11z"/>
<path d="M830 310 c0 -5 5 -10 10 -10 6 0 10 5 10 10 0 6 -4 10 -10 10 -5 0
-10 -4 -10 -10z"/>
<path d="M390 306 c0 -2 8 -10 18 -17 15 -13 16 -12 3 4 -13 16 -21 21 -21 13z"/>
<path d="M600 299 c0 -5 5 -7 10 -4 6 3 10 8 10 11 0 2 -4 4 -10 4 -5 0 -10
-5 -10 -11z"/>
<path d="M630 299 c0 -5 5 -7 10 -4 6 3 10 8 10 11 0 2 -4 4 -10 4 -5 0 -10
-5 -10 -11z"/>
<path d="M790 300 c0 -5 5 -10 11 -10 5 0 7 5 4 10 -3 6 -8 10 -11 10 -2 0 -4
-4 -4 -10z"/>
<path d="M346 291 c-4 -5 0 -11 6 -14 10 -3 10 -10 -2 -33 -8 -16 -16 -32 -18
-36 -1 -4 4 -5 12 -2 9 3 13 10 10 15 -3 5 0 9 5 9 6 0 11 16 11 35 0 33 -12
46 -24 26z"/>
<path d="M5659 279 c-6 -12 -7 -25 -2 -30 5 -5 14 4 20 21 13 34 -1 41 -18 9z"/>
<path d="M264 279 c-4 -7 -3 -9 4 -5 6 3 13 -2 15 -11 4 -16 5 -16 6 -1 1 21
-15 32 -25 17z"/>
<path d="M495 274 c9 -9 19 -13 23 -10 3 4 0 11 -8 16 -24 15 -33 11 -15 -6z"/>
<path d="M795 270 c-3 -5 -1 -10 4 -10 6 0 11 5 11 10 0 6 -2 10 -4 10 -3 0
-8 -4 -11 -10z"/>
<path d="M240 250 c0 -5 5 -10 11 -10 5 0 7 5 4 10 -3 6 -8 10 -11 10 -2 0 -4
-4 -4 -10z"/>
<path d="M661 244 c0 -11 3 -14 6 -6 3 7 2 16 -1 19 -3 4 -6 -2 -5 -13z"/>
<path d="M860 256 c0 -2 7 -6 15 -10 8 -3 15 -1 15 4 0 6 -7 10 -15 10 -8 0
-15 -2 -15 -4z"/>
<path d="M495 240 c-3 -5 -1 -10 4 -10 6 0 11 5 11 10 0 6 -2 10 -4 10 -3 0
-8 -4 -11 -10z"/>
<path d="M305 229 c-11 -16 -1 -19 13 -3 7 8 8 14 3 14 -5 0 -13 -5 -16 -11z"/>
<path d="M464 216 c-2 -23 30 -34 41 -15 3 5 -1 6 -9 3 -10 -4 -16 -1 -16 9 0
25 -15 27 -16 3z"/>
<path d="M751 231 c-8 -5 -9 -11 -3 -15 5 -3 12 1 16 9 6 17 6 18 -13 6z"/>
<path d="M953 225 c-4 -5 -3 -7 2 -3 4 4 14 3 20 -2 9 -7 14 -7 18 3 6 15 -32
18 -40 2z"/>
<path d="M3313 183 c-8 -45 -7 -64 2 -83 7 -14 19 -40 25 -57 8 -22 19 -33 32
-33 16 0 18 4 12 23 -4 12 -7 32 -6 44 1 13 -4 23 -11 23 -14 0 -18 14 -18 64
0 16 -4 36 -10 43 -9 9 -8 13 0 13 7 0 9 5 6 10 -13 21 -21 8 -32 -47z"/>
<path d="M402 196 c27 -41 40 -48 70 -37 l23 8 -22 7 c-11 4 -27 5 -34 4 -7
-2 -15 8 -19 22 -3 14 -14 26 -23 28 -15 3 -14 -1 5 -32z"/>
<path d="M627 217 c-3 -8 1 -14 9 -14 16 0 19 13 5 21 -5 3 -11 0 -14 -7z"/>
<path d="M780 219 c0 -5 5 -7 10 -4 6 3 10 8 10 11 0 2 -4 4 -10 4 -5 0 -10
-5 -10 -11z"/>
<path d="M1010 210 c0 -5 5 -10 10 -10 6 0 10 5 10 10 0 6 -4 10 -10 10 -5 0
-10 -4 -10 -10z"/>
<path d="M550 179 c0 -5 5 -7 10 -4 6 3 10 8 10 11 0 2 -4 4 -10 4 -5 0 -10
-5 -10 -11z"/>
<path d="M617 183 c-4 -3 -7 -13 -7 -22 1 -13 3 -13 11 2 11 19 8 33 -4 20z"/>
<path d="M940 179 c0 -5 5 -7 10 -4 6 3 10 8 10 11 0 2 -4 4 -10 4 -5 0 -10
-5 -10 -11z"/>
<path d="M981 174 c0 -11 3 -14 6 -6 3 7 2 16 -1 19 -3 4 -6 -2 -5 -13z"/>
<path d="M257 163 c-10 -9 -8 -43 2 -43 5 0 12 10 15 23 7 21 8 21 15 3 7 -18
8 -18 14 -2 4 10 7 20 7 22 0 7 -46 5 -53 -3z"/>
<path d="M811 163 c0 -6 -4 -18 -7 -26 -3 -9 3 -16 15 -20 12 -3 21 -1 21 4 0
5 -4 9 -9 9 -5 0 -12 10 -14 23 -2 12 -5 17 -6 10z"/>
<path d="M580 139 c0 -5 5 -7 10 -4 6 3 10 8 10 11 0 2 -4 4 -10 4 -5 0 -10
-5 -10 -11z"/>
<path d="M1186 137 c3 -10 9 -15 12 -12 3 3 0 11 -7 18 -10 9 -11 8 -5 -6z"/>
<path d="M351 118 c-7 -11 -10 -23 -6 -26 3 -4 10 0 14 7 7 11 9 11 13 0 2 -7
7 -9 10 -3 4 5 1 17 -6 26 -11 15 -13 15 -25 -4z"/>
<path d="M420 129 c0 -5 7 -9 15 -9 8 0 18 0 22 -1 4 0 9 3 10 8 2 4 -8 9 -22
9 -14 1 -25 -2 -25 -7z"/>
<path d="M670 124 c0 -8 5 -12 10 -9 6 4 8 11 5 16 -9 14 -15 11 -15 -7z"/>
<path d="M480 118 c0 -8 9 -14 20 -14 24 0 21 20 -3 24 -9 2 -17 -3 -17 -10z"/>
<path d="M700 114 c0 -8 5 -12 10 -9 6 4 8 11 5 16 -9 14 -15 11 -15 -7z"/>
<path d="M874 118 c-3 -4 2 -8 10 -8 9 0 19 0 23 -1 4 0 9 3 10 8 4 11 -37 12
-43 1z"/>
<path d="M544 109 c-3 -6 -3 -13 0 -16 3 -4 6 -1 6 7 0 10 3 10 15 0 9 -7 15
-8 15 -2 0 14 -28 23 -36 11z"/>
<path d="M1070 109 c0 -5 5 -7 10 -4 6 3 10 8 10 11 0 2 -4 4 -10 4 -5 0 -10
-5 -10 -11z"/>
<path d="M430 95 c27 -14 36 -13 25 4 -3 6 -16 11 -28 11 -21 -1 -21 -1 3 -15z"/>
<path d="M157 68 c-39 -44 -27 -46 18 -3 21 19 32 35 24 35 -8 -1 -26 -15 -42
-32z"/>
<path d="M1003 80 c-3 -11 -14 -20 -24 -20 -10 0 -21 -5 -25 -12 -5 -8 -2 -9
11 -4 11 4 22 2 26 -6 6 -9 10 -7 14 7 4 11 11 28 16 38 6 11 6 17 -2 17 -6 0
-13 -9 -16 -20z"/>
<path d="M277 58 c-10 -17 -16 -32 -14 -35 6 -6 39 47 35 57 -2 5 -11 -4 -21
-22z"/>
<path d="M505 58 c-8 -18 -14 -27 -15 -20 0 7 -5 10 -11 7 -6 -4 -8 -13 -5
-21 3 -8 0 -11 -10 -7 -7 3 -14 1 -14 -4 0 -5 14 -10 30 -11 17 -1 30 3 30 9
0 6 7 9 15 5 21 -8 19 14 -2 31 -17 14 -17 14 0 9 10 -3 17 0 17 9 0 29 -21
25 -35 -7z"/>
<path d="M660 79 c0 -5 5 -7 10 -4 6 3 10 8 10 11 0 2 -4 4 -10 4 -5 0 -10 -5
-10 -11z"/>
<path d="M825 80 c4 -6 11 -8 16 -5 14 9 11 15 -7 15 -8 0 -12 -5 -9 -10z"/>
<path d="M1035 80 c-3 -5 -1 -10 4 -10 6 0 11 5 11 10 0 6 -2 10 -4 10 -3 0
-8 -4 -11 -10z"/>
<path d="M240 65 c-17 -21 -9 -27 13 -10 10 7 14 16 9 19 -5 3 -15 -1 -22 -9z"/>
<path d="M690 70 c0 -5 5 -10 11 -10 5 0 7 5 4 10 -3 6 -8 10 -11 10 -2 0 -4
-4 -4 -10z"/>
<path d="M860 69 c0 -5 5 -7 10 -4 6 3 10 8 10 11 0 2 -4 4 -10 4 -5 0 -10 -5
-10 -11z"/>
<path d="M1070 65 c0 -8 2 -15 4 -15 2 0 6 7 10 15 3 8 1 15 -4 15 -6 0 -10
-7 -10 -15z"/>
<path d="M312 54 c-7 -8 -8 -14 -3 -14 10 0 25 19 20 25 -2 1 -10 -3 -17 -11z"/>
<path d="M353 48 c-9 -20 -7 -23 11 -23 18 0 21 5 18 23 -2 12 -8 22 -12 22
-4 0 -11 -10 -17 -22z"/>
<path d="M571 61 c-9 -6 -7 -10 8 -14 12 -3 21 -1 21 3 0 14 -15 19 -29 11z"/>
<path d="M928 63 c7 -3 16 -2 19 1 4 3 -2 6 -13 5 -11 0 -14 -3 -6 -6z"/>
<path d="M410 50 c0 -5 5 -10 10 -10 6 0 10 5 10 10 0 6 -4 10 -10 10 -5 0
-10 -4 -10 -10z"/>
<path d="M1025 40 c-3 -5 -1 -18 4 -27 10 -17 10 -17 11 0 0 9 5 17 10 17 6 0
10 5 10 10 0 13 -27 13 -35 0z"/>
<path d="M286 15 c-4 -11 2 -15 19 -15 30 0 32 6 6 19 -14 8 -20 7 -25 -4z"/>
<path d="M421 21 c-8 -5 -9 -11 -3 -15 5 -3 12 1 16 9 6 17 6 18 -13 6z"/>
<path d="M718 23 c7 -3 16 -2 19 1 4 3 -2 6 -13 5 -11 0 -14 -3 -6 -6z"/>
<path d="M926 22 c-3 -6 3 -12 14 -15 11 -3 23 0 27 6 3 7 3 9 -2 5 -4 -4 -14
-3 -21 3 -7 6 -15 6 -18 1z"/>
<path d="M200 9 c0 -5 5 -7 10 -4 6 3 10 8 10 11 0 2 -4 4 -10 4 -5 0 -10 -5
-10 -11z"/>
</g>
</svg>
